<?xml version="1.0" standalone="no"?>
<!DOCTYPE svg PUBLIC "-//W3C//DTD SVG 20010904//EN"
 "http://www.w3.org/TR/2001/REC-SVG-20010904/DTD/svg10.dtd">
<svg version="1.0" xmlns="http://www.w3.org/2000/svg"
 width="64.000000pt" height="64.000000pt" viewBox="0 0 64.000000 64.000000"
 preserveAspectRatio="xMidYMid meet">

<g transform="translate(0.000000,64.000000) scale(0.100000,-0.100000)"
fill="#000000" stroke="none">
<path d="M300 626 c0 -3 -25 -117 -56 -253 -52 -233 -58 -282 -39 -325 6 -16
0 -18 -58 -18 -79 0 -97 6 -97 32 0 18 4 19 51 13 41 -6 51 -4 47 6 -2 8 -25
18 -51 23 -57 11 -79 -3 -75 -48 4 -45 35 -56 158 -56 108 0 149 11 120 30 -8
5 -22 10 -31 10 -23 0 -49 32 -49 61 0 13 23 128 51 256 51 228 53 232 73 217
26 -18 96 -18 122 0 20 15 22 11 73 -217 28 -128 51 -244 51 -258 0 -28 -22
-53 -58 -64 -20 -6 -28 -28 -9 -26 4 1 15 1 26 1 32 0 71 48 71 89 0 20 -25
145 -55 278 -30 134 -55 245 -55 248 0 11 -23 4 -47 -15 -14 -11 -40 -20 -58
-20 -18 0 -44 9 -58 20 -23 18 -47 26 -47 16z"/>
<path d="M340 470 c0 -5 7 -10 15 -10 8 0 15 5 15 10 0 6 -7 10 -15 10 -8 0
-15 -4 -15 -10z"/>
<path d="M440 470 c0 -5 7 -10 15 -10 8 0 15 5 15 10 0 6 -7 10 -15 10 -8 0
-15 -4 -15 -10z"/>
<path d="M280 271 c0 -20 42 -218 50 -238 8 -20 17 -23 69 -23 35 0 63 5 69
12 10 13 52 205 52 240 0 11 -5 18 -12 16 -11 -4 -20 -39 -48 -180 -8 -38 -16
-58 -26 -58 -11 0 -14 19 -14 95 0 78 -3 95 -15 95 -12 0 -15 -17 -15 -96 0
-86 -2 -95 -17 -92 -14 2 -23 28 -42 121 -16 79 -28 117 -38 117 -7 0 -13 -4
-13 -9z"/>
</g>
</svg>
